PathFileType	4	(X/Y/Z)	C:/Users/beibeiliu/ov580/test_trc\sequence.10_training_dense_left.trc
DataRate	CameraRate	NumFrames	NumMarkers	Units	OrigDataRate	OrigDataStartFrame	OrigNumFrames
120	120	18	19	mm	120	152	302
Frame#	Time	ThumbCMC			ThumbMCP			ThumbIP			ThumbTip			IndexMCP			IndexPIP			IndexTip			MiddleMCP			MiddlePIP			MiddleTip			RingMCP			RingPIP			RingTip			PinkyMCP			PinkyPIP			PinkyTip			BackHand1			BackHand2			BackHand3	
		X0	Y0	Z0	X1	Y1	Z1	X2	Y2	Z2	X3	Y3	Z3	X4	Y4	Z4	X5	Y5	Z5	X6	Y6	Z6	X7	Y7	Z7	X8	Y8	Z8	X9	Y9	Z9	X10	Y10	Z10	X11	Y11	Z11	X12	Y12	Z12	X13	Y13	Z13	X14	Y14	Z14	X15	Y15	Z15	X16	Y16	Z16	X17	Y17	Z17	X18	Y18	Z18	
151	1.25833	-157.019	54.4371	14.9146	-146.886	67.3089	-3.47752	-141.365	84.8178	-22.9002	-147.948	95.4012	-39.059	-163.111	108.414	-19.0568	-162.995	127.082	-31.6829	-165.389	147.809	-42.9787	-181.711	116.684	-21.1925	-179.229	137.378	-32.1514	-176.231	160.128	-40.2638	-195.438	116.859	-18.77	-192.596	133.331	-28.7858	-191.049	148.469	-34.599	-210.741	104.534	-12.3113	-210.297	120.023	-19.8716	-208.002	135.637	-23.852	-202.602	88.8965	12.2306	-204.114	71.3058	31.8952	-177.281	79.5492	20.0977	
152	1.26667	-157.678	47.6265	14.3642	-143.552	57.753	-2.54155	-138.994	76.8442	-19.2652	-142.674	91.2313	-35.4967	-159.101	106.318	-17.1586	-157.921	125.227	-27.5762	-160.73	143.368	-34.517	-178.477	115.05	-16.7894	-174.075	133.769	-25.7936	-174.634	155.936	-31.7448	-192.648	109.669	-13.057	-191.29	128.188	-21.7163	-188.297	150.424	-28.7621	-213.027	100.843	-8.05449	-204.916	116.527	-15.5509	-202.665	133.828	-19.2626	-200.13	79.5338	14.977	-198.638	64.1515	34.1764	-175.32	70.3897	23.6085	
153	1.275	-158.317	41.5619	15.0831	-139.161	54.4083	-1.49323	-139.994	73.683	-16.0787	-139.516	86.4857	-31.6379	-160.56	99.5745	-11.3318	-156.292	124.295	-21.2169	-160.133	143.942	-28.5388	-172.769	113.613	-12.2256	-173.574	131.165	-19.2448	-168.797	153.731	-24.2169	-194.707	105.242	-8.35988	-188.944	127.882	-15.8188	-184.32	143.095	-21.2095	-207.328	94.8472	-5.88965	-205.832	115.276	-11.3798	-202.42	130.423	-12.7219	-199.399	77.4083	14.3672	-200.426	56.4786	35.7656	-173.736	63.6692	26.852	
154	1.28333	-156.557	36.4248	15.6291	-136.113	50.969	-1.48612	-133.651	71.8951	-16.9903	-139.77	84.6013	-29.6922	-154.13	100.081	-8.44387	-156.826	118.911	-16.1962	-156.131	137.683	-22.3438	-174.044	107.582	-7.97774	-168.402	127.072	-13.9787	-165.811	152.46	-17.0577	-187.659	99.4728	-5.68459	-188.016	124.938	-12.3365	-183.771	142.175	-15.7286	-208.318	89.9396	-3.09161	-200.628	109.891	-7.06609	-201.365	124.741	-9.1097	-194.595	69.6911	17.4351	-198.931	49.3941	35.8244	-169.699	58.9426	24.7899	
155	1.29167	-154.46	28.5179	17.1589	-139.506	47.077	-0.401041	-132.123	64.5417	-14.7553	-133.082	82.9731	-30.4377	-149.613	91.4989	-6.19454	-148.533	115.09	-12.848	-149.619	135.687	-18.7921	-169.137	102.518	-5.01219	-163.78	126.093	-12.0108	-164.259	146.351	-12.552	-184.449	96.7375	-3.9197	-185.643	117.696	-8.30184	-179.702	138.02	-12.1781	-202.509	88.8229	-2.23018	-201.571	105.497	-5.89014	-198.735	121.774	-5.21145	-191.294	65.5881	18.9002	-194.847	45.1659	38.0094	-170.972	53.1326	29.1433	
156	1.3	-151.835	26.8892	16.7209	-137.414	41.321	1.61662	-128.892	61.0225	-13.8722	-126.84	74.528	-29.5273	-152.333	90.368	-5.92153	-149.97	109.614	-11.7969	-147.828	130.185	-18.025	-168.591	101.362	-4.54167	-164.168	119.743	-9.51148	-162.769	144.226	-10.7077	-186.182	96.3446	-3.18078	-178.166	115.09	-8.50651	-176.733	135.322	-11.4899	-200.054	80.4279	-2.63774	-197.057	98.7896	-5.48609	-198.482	118.136	-4.09701	-191.021	62.4178	16.8997	-192.722	42.7856	34.9843	-169.182	51.9356	25.994	
157	1.30833	-149.364	19.6627	18.8669	-135.012	33.2695	1.822	-126.919	55.3427	-13.6489	-129.151	70.9952	-28.0168	-145.139	84.0244	-5.09219	-145.204	103.448	-12.2715	-142.243	127.065	-17.4642	-166.958	93.4262	-4.22521	-159.148	115.865	-9.70527	-159.105	142.248	-11.4855	-184.937	91.1717	-4.51112	-176.828	110.444	-9.51205	-174.095	132.393	-12.4308	-199.539	80.2806	-2.08856	-194.824	95.9053	-5.40208	-189.852	114.658	-7.48703	-191.695	60.7352	16.5245	-194.679	40.7534	35.0274	-164.159	44.7008	27.8717	
158	1.31667	-150.265	19.3446	17.6523	-131.236	33.3186	1.38708	-128.622	49.3308	-12.0377	-125.709	64.8342	-27.2742	-146.033	82.1054	-5.98174	-143.979	101.622	-13.1756	-143.173	121.757	-17.5837	-161.171	93.8025	-5.91609	-158.181	109.029	-10.4724	-157.55	133.802	-13.0637	-181.133	90.5448	-4.82971	-174.296	106.781	-9.63685	-173.792	125.057	-12.6712	-198.607	77.9502	-2.69602	-197.009	92.222	-6.65764	-191.237	113.354	-9.15798	-189.361	53.4505	17.1846	-194.31	37.7858	35.7434	-163.203	43.4545	27.9585	
159	1.325	-148.919	13.5523	18.2365	-129.847	31.4332	1.02924	-126.328	50.727	-13.4579	-125.493	64.42	-28.9175	-141.862	75.3316	-6.9723	-141.588	100.762	-14.3488	-143.537	116.94	-19.4686	-163.451	87.0307	-6.29575	-159.656	109.2	-12.5089	-155.124	132.472	-14.56	-181.737	84.1096	-6.39601	-172.332	103.403	-10.8789	-169.77	123.262	-15.4321	-195.532	72.9675	-3.80255	-191.594	89.3897	-8.60904	-187.749	106.369	-7.71494	-189.106	52.0267	18.0589	-192.641	36.9226	35.0473	-165.022	42.128	26.467	
160	1.33333	-150.339	11.3078	17.8523	-131.05	27.6592	1.71679	-124.959	46.9878	-14.5384	-125.815	64.9355	-31.3248	-145.47	75.9313	-7.63034	-142.014	94.9645	-14.6614	-141.036	118.1	-20.3591	-160.218	87.0636	-8.4488	-157.182	106.578	-14.5484	-155.778	132.796	-15.7446	-179.413	79.1562	-6.91083	-175.952	104.774	-12.3926	-171.521	119.715	-16.4604	-197.855	69.6541	-5.63642	-193.34	91.7744	-9.60615	-185.657	108.647	-10.3412	-183.626	52.2486	15.1547	-188.071	32.2895	33.5562	-161.475	37.8368	28.0898	
161	1.34167	-149.383	10.5448	17.6799	-127.944	25.3165	-0.266454	-126.461	45.7526	-15.4484	-125.488	61.9837	-31.2722	-141.441	71.7754	-8.98917	-139.812	90.9399	-15.8592	-142.137	115.525	-22.5683	-162.135	81.3434	-9.90379	-159.288	103.545	-16.1864	-156.186	126.9	-16.467	-179.782	80.5278	-7.78496	-171.993	98.3226	-13.9705	-170.113	120.527	-17.5953	-197.026	66.1428	-6.33309	-190.525	84.4222	-10.5102	-189.593	104.015	-11.8126	-185.323	50.1775	13.6822	-191.943	33.5862	31.7965	-164.612	38.6433	25.5493	
162	1.35	-149.605	11.1297	17.485	-129.634	25.841	-0.581604	-124.707	41.6774	-15.9862	-126.868	57.7057	-29.8208	-141.323	71.2314	-8.90872	-143.337	94.6406	-17.8242	-141.734	115.072	-22.6331	-160.924	83.5424	-10.8034	-154.304	103.935	-17.1025	-152.103	124.683	-17.8412	-176.28	80.1718	-10.0558	-174.114	97.2337	-15.4072	-170.338	116.035	-18.0732	-196.054	67.8276	-5.78605	-193.765	85.0984	-10.6901	-187.673	105.93	-13.5195	-186.285	47.5718	14.7914	-190.01	32.8971	32.1219	-160.432	34.5741	27.1949	
163	1.35833	-147.46	11.0527	17.4802	-131.363	22.7929	1.07562	-126.041	45.4528	-16.7818	-125.83	56.6482	-30.8592	-143.205	70.9503	-10.6736	-143.838	93.0508	-18.5012	-142.18	111.177	-23.0048	-159.732	81.7819	-11.8652	-158.845	99.9425	-18.5352	-152.256	122.231	-20.0285	-179.305	75.4919	-9.97782	-173.017	93.9182	-15.2636	-166.648	115.26	-19.3569	-194.606	63.9307	-7.67068	-190.863	82.5585	-10.9409	-188.332	99.3169	-14.2262	-187.457	47.2049	15.9967	-188.246	29.3958	33.7837	-161.338	32.7618	26.9323	
164	1.36667	-149.183	12.3977	16.9071	-131.993	23.66	0.396099	-129.88	44.3088	-15.2847	-125.501	58.3731	-30.8866	-142.519	73.1482	-11.2727	-141.511	92.4519	-18.4687	-142.657	110.305	-24.481	-159.311	79.6607	-11.2929	-158.229	101.98	-19.2302	-155.784	126.197	-21.3889	-178.985	76.3571	-10.6788	-176.7	96.0514	-15.771	-168.661	112.621	-20.8007	-197.967	63.4189	-8.0268	-188.76	83.7466	-11.6826	-183.267	102.412	-14.1337	-188.38	45.8078	13.6844	-193.167	29.4208	34.1612	-161.857	37.2961	25.1449	
165	1.375	-148.08	13.5843	17.3192	-134.186	26.2242	0.662454	-129.759	46.5473	-16.0859	-128.973	60.2382	-31.2318	-143.726	70.6155	-10.1676	-146.305	94.3366	-20.1826	-146.483	113.024	-25.3134	-163.739	82.5144	-12.5544	-159.039	105.209	-19.5681	-153.464	126.288	-21.9518	-176.859	77.6038	-11.0385	-173.983	98.996	-16.642	-169.19	114.753	-21.2563	-194.953	66.2871	-7.90611	-195.03	83.191	-11.6091	-186.268	99.8699	-16.3017	-190.121	48.8164	15.3316	-190.245	33.6842	33.067	-166.049	39.189	26.0089	
166	1.38333	-147.643	13.9852	16.5029	-131.64	26.7674	-0.830937	-125.889	47.4163	-16.8821	-131.868	61.1852	-30.9593	-145.51	71.2758	-11.5197	-146.038	95.1149	-20.6496	-142.188	117.021	-25.9227	-163.166	86.2758	-12.4784	-159.936	105.664	-19.8229	-157.204	128.697	-21.9532	-184.059	78.7841	-10.2308	-176.252	97.5167	-17.5538	-175.262	116.602	-22.9548	-199.469	70.27	-8.75821	-191.602	86.6292	-14.1927	-190.433	103.381	-15.9977	-191.476	49.8117	15.6313	-190.17	32.3283	33.3182	-161.95	39.033	23.4428	
167	1.39167	-149.53	12.0369	17.7005	-133.711	30.1932	-1.49951	-126.657	45.0568	-16.1925	-128.425	62.0705	-33.1512	-146.162	76.946	-12.048	-147.722	96.7517	-20.7692	-146.019	116.958	-26.7483	-166.493	86.1107	-13.0917	-162.403	104.157	-20.0686	-161.673	129.739	-22.6471	-181.828	77.328	-10.7358	-178.548	99.8898	-17.47	-175.292	119.981	-23.4196	-198.029	67.9192	-8.16284	-197.14	86.2658	-13.9006	-193.978	104.287	-15.4403	-190.582	52.6924	14.5389	-192.363	33.4759	32.7397	-163.05	40.5367	22.6592	
168	1.4	-152.455	17.2956	15.8389	-134.645	26.9101	-0.195098	-131.993	47.9677	-16.6238	-126.873	61.7632	-32.8619	-146.848	76.1581	-11.817	-148.986	97.7304	-20.6702	-148.391	117.146	-25.6119	-164.281	87.2674	-13.9285	-163.078	105.44	-20.2728	-160.363	132.189	-22.541	-182.161	84.198	-13.0739	-175.804	101.197	-19.4029	-174.144	117.648	-24.3815	-199.925	70.1485	-9.01434	-194.289	89.307	-14.479	-190.388	103.113	-17.0847	-191.051	51.486	14.7449	-195.271	36.0021	31.7945	-164.21	41.284	26.1252	
